<?xml version="1.0" encoding="UTF-8" standalone="no"?>
<!-- Created with Inkscape (http://www.inkscape.org/) -->

<svg
   xmlns:dc="http://purl.org/dc/elements/1.1/"
   xmlns:cc="http://creativecommons.org/ns#"
   xmlns:rdf="http://www.w3.org/1999/02/22-rdf-syntax-ns#"
   xmlns:svg="http://www.w3.org/2000/svg"
   xmlns="http://www.w3.org/2000/svg"
   xmlns:sodipodi="http://sodipodi.sourceforge.net/DTD/sodipodi-0.dtd"
   xmlns:inkscape="http://www.inkscape.org/namespaces/inkscape"
   width="64px"
   height="64px"
   viewBox="0 0 64 64"
   version="1.1"
   id="SVGRoot"
   sodipodi:docname="lxbg.svg"
   inkscape:version="0.92.4 (5da689c313, 2019-01-14)">
  <defs
     id="defs4668" />
  <sodipodi:namedview
     id="base"
     pagecolor="#ffffff"
     bordercolor="#666666"
     borderopacity="1.0"
     inkscape:pageopacity="0.0"
     inkscape:pageshadow="2"
     inkscape:zoom="4"
     inkscape:cx="-8.625"
     inkscape:cy="32"
     inkscape:document-units="px"
     inkscape:current-layer="layer1"
     showgrid="false"
     inkscape:window-width="1920"
     inkscape:window-height="1027"
     inkscape:window-x="-8"
     inkscape:window-y="-8"
     inkscape:window-maximized="1"
     inkscape:grid-bbox="true" />
  <metadata
     id="metadata4671">
    <rdf:RDF>
      <cc:Work
         rdf:about="">
        <dc:format>image/svg+xml</dc:format>
        <dc:type
           rdf:resource="http://purl.org/dc/dcmitype/StillImage" />
      </cc:Work>
    </rdf:RDF>
  </metadata>
  <g
     inkscape:label="Layer 1"
     inkscape:groupmode="layer"
     id="layer1">
    <text
       xml:space="preserve"
       style="font-style:normal;font-weight:normal;font-size:33.38129807px;line-height:1.25;font-family:sans-serif;letter-spacing:0px;word-spacing:0px;fill:#ffce46;fill-opacity:1;stroke:none;stroke-width:2.08633113;"
       x="23.975657"
       y="40.109833"
       id="text105"
       transform="scale(1.018349,0.98198165)"><tspan
         sodipodi:role="line"
         x="23.975657"
         y="40.109833"
         id="tspan107"
         style="font-style:normal;font-variant:normal;font-weight:normal;font-stretch:normal;font-size:26.43471718px;font-family:'Segoe Print';-inkscape-font-specification:'Segoe Print';fill:#ffce46;fill-opacity:1;stroke-width:2.08633113;">BG</tspan></text>
    <path
       id="path135"
       d="m 12.632196,22.68689 c -0.575151,0.897411 -1.075298,1.833861 -1.652238,2.730151 -0.346213,0.511935 -0.699419,1.023311 -0.9895636,1.565393 -0.2672881,0.449248 -0.526954,0.904743 -0.7533356,1.373612 -0.2589392,0.467651 -0.5240556,0.933538 -0.7524389,1.41521 -0.26373,0.53161 -0.5359364,1.062742 -0.8444145,1.573222 -0.2436258,0.48562 -0.4704588,0.986985 -0.6446198,1.499113 -0.2073279,0.517322 -0.3559382,1.055095 -0.5651869,1.571532 -0.234611,0.57762 -0.4716731,1.14844 -0.6104267,1.753623 -0.163861,0.587483 -0.3487086,1.162577 -0.4380428,1.765515 -0.040763,0.465618 -0.2274179,1.047327 0.3294464,1.268005 0.5959108,0.157214 1.1680926,0.117317 1.7560228,-0.02179 1.6268083,-0.922366 3.8680746,-2.02033 -4.0540641,2.156374 -0.078894,0.0416 0.1486812,-0.09676 0.2229995,-0.145143 0.3280418,-0.213546 0.1682328,-0.103705 0.4827626,-0.331839 0.4356444,-0.363961 0.8183274,-0.77715 1.2373064,-1.156444 0.3710614,-0.35769 0.7312844,-0.727404 1.122371,-1.066397 0.2424418,-0.245268 0.1181191,-0.129436 0.3719458,-0.348402 0,0 5.1239554,-2.005983 5.1239554,-2.005983 v 0 c -0.222473,0.263706 -0.09739,0.148741 -0.372276,0.347796 -0.329541,0.390902 -0.752949,0.709439 -1.126479,1.061467 -0.362599,0.432391 -0.8197122,0.795363 -1.227284,1.1897 C 9.0510758,39.1043 8.8518944,39.288516 8.5820783,39.436418 7.8250935,39.851369 5.009194,41.911626 3.0376906,42.302511 2.3560868,42.378037 1.6451312,42.316621 1.0350566,42.003546 0.4106239,41.530624 0.30245054,40.959879 0.4122694,40.232727 0.47387919,39.617638 0.57663639,39.008529 0.83631237,38.435155 0.94238889,37.796772 1.1402587,37.197099 1.3941219,36.59895 c 0.067054,-0.16126 0.162849,-0.311999 0.2203724,-0.47645 0.1216409,-0.347734 0.1448963,-0.730402 0.3726866,-1.044981 0.1300809,-0.564436 0.4009595,-1.064678 0.5872077,-1.611349 0.2881027,-0.515676 0.6122808,-1.013277 0.8602663,-1.546461 0.255464,-0.480357 0.472841,-0.968463 0.7314726,-1.445896 0.3130299,-0.424311 0.4731142,-0.940199 0.7480813,-1.387496 0.3786452,-0.499565 0.5994933,-1.10312 0.9979107,-1.597734 0.6575125,-0.833838 1.0737875,-1.801338 1.6747603,-2.669587 0,0 5.0453182,-2.132029 5.0453182,-2.132029 z"
       inkscape:connector-curvature="0"
       style="fill:#ffce46;fill-opacity:1;stroke-width:2.881953;opacity:1" />
    <path
       id="path137"
       d="m 20.251975,34.791907 c -0.929549,0.337579 -1.826712,0.750715 -2.75954,1.078836 -1.688025,0.748113 -4.606364,2.387491 2.564289,-1.45694 -0.408264,0.209641 -0.681286,0.526259 -0.944202,0.875691 -0.252054,0.269553 -0.441034,0.583341 -0.643644,0.885863 0,0 -4.390955,1.758137 -4.390955,1.758137 v 0 c 0.275874,-0.261189 0.42801,-0.594356 0.636437,-0.900912 0.333865,-0.306288 0.480886,-0.75967 0.898956,-0.983019 1.862282,-1.018869 3.631564,-2.146256 5.616108,-2.922844 0.922853,-0.363354 1.843381,-0.731838 2.780816,-1.061924 0,0 -3.758265,2.727112 -3.758265,2.727112 z"
       inkscape:connector-curvature="0"
       style="fill:#ffce46;fill-opacity:1;stroke-width:2.4782548" />
    <path
       id="path139"
       d="m 17.158048,32.650964 c 0.606531,0.136323 1.231297,0.231019 1.823995,0.457869 0.378703,0.0923 0.695492,0.326628 1.015066,0.595897 0.264699,0.173872 0.511565,0.412218 0.722171,0.689557 0.241353,0.229012 0.491162,0.415976 0.678009,0.73115 0.17627,0.299073 0.370108,0.577932 0.549551,0.873421 0.232539,0.224497 0.435661,0.483661 0.615596,0.786166 0.02858,0.06493 0.05716,0.129856 0.08574,0.19477 0,0 -2.578608,2.004683 -2.578608,2.004683 v 0 c -0.02108,-0.0474 -0.04217,-0.09476 -0.06325,-0.142168 -0.185819,-0.293909 -0.405573,-0.523414 -0.614598,-0.783882 -0.183958,-0.290096 -0.369107,-0.578329 -0.549202,-0.872587 -0.187907,-0.280755 -0.455189,-0.428382 -0.658434,-0.687595 -0.211843,-0.245096 -0.444578,-0.451496 -0.691649,-0.627502 -0.294183,-0.249059 -0.614982,-0.397365 -0.95351,-0.503625 -0.59292,-0.185241 -1.196655,-0.333676 -1.802922,-0.407815 0,0 2.422045,-2.308339 2.422045,-2.308339 z"
       inkscape:connector-curvature="0"
       style="fill:#ffce46;fill-opacity:1;stroke-width:1.8535707" />
  </g>
</svg>

